<?xml version="1.0" standalone="no"?>
<!DOCTYPE svg PUBLIC "-//W3C//DTD SVG 20010904//EN"
 "http://www.w3.org/TR/2001/REC-SVG-20010904/DTD/svg10.dtd">
<svg version="1.0" xmlns="http://www.w3.org/2000/svg"
 width="512.000000pt" height="512.000000pt" viewBox="0 0 512.000000 512.000000"
 preserveAspectRatio="xMidYMid meet">
<metadata>
Created by potrace 1.16, written by Peter Selinger 2001-2019
</metadata>
<g transform="translate(0.000000,512.000000) scale(0.100000,-0.100000)"
fill="#fff" stroke="none">
<path d="M0 2560 l0 -2560 2560 0 2560 0 0 2560 0 2560 -2560 0 -2560 0 0
-2560z m4208 419 l-3 -1732 -823 -418 c-453 -231 -827 -419 -832 -419 -5 0
-375 188 -822 419 l-813 418 -3 1732 -2 1731 1650 0 1650 0 -2 -1731z" fill="#000000" fill-opacity="1"/>
<path d="M1082 2949 l3 -1601 725 -374 c399 -205 732 -373 740 -373 8 0 346
168 750 373 l735 374 3 1601 2 1601 -1480 0 -1480 0 2 -1601z m1548 -804 l75
-225 60 -1 c33 -1 142 -4 242 -8 l182 -6 -194 -143 c-186 -138 -193 -145 -185
-170 5 -15 37 -115 71 -222 34 -107 64 -201 67 -208 3 -8 -84 50 -192 127
-108 78 -201 141 -206 141 -5 0 -98 -63 -206 -141 -108 -77 -195 -135 -192
-127 3 7 33 101 67 208 34 107 66 207 71 222 8 25 1 32 -185 170 l-194 143
182 6 c100 4 209 7 242 8 l60 1 75 225 c41 124 77 225 80 225 3 0 39 -101 80
-225z"  fill="#000000" fill-opacity="1"/>
</g>
</svg>
